<svg data-v-423bf9ae="" xmlns="http://www.w3.org/2000/svg" viewBox="0 0 708 90" class="iconLeftSlogan"><!----><!----><!----><g data-v-423bf9ae="" id="87b6a2e8-3b00-4cd8-bf88-5f1d37723293" fill="#000000" transform="matrix(5.6872042027481005,0,0,5.6872042027481005,114.61149118037326,-26.445499608315565)"><path d="M3.79 15.20C5.00 15.20 5.92 14.70 6.24 13.71C6.41 13.27 6.30 13.10 6.12 13.03C5.87 14.11 4.98 14.57 3.99 14.57C2.70 14.57 1.55 13.80 1.55 11.44C1.55 9.30 2.51 8.22 3.84 8.22C4.66 8.22 5.39 8.61 5.39 9.49C5.39 9.91 5.25 10.25 4.90 10.32C5.04 10.53 5.25 10.57 5.45 10.57C5.91 10.57 6.23 10.16 6.23 9.55C6.23 8.50 5.39 7.78 3.93 7.78C1.85 7.78 0.67 9.23 0.67 11.55C0.67 13.96 1.86 15.20 3.79 15.20ZM14.35 14.17C14.24 14.38 14.01 14.49 13.86 14.49C13.52 14.49 13.34 14.27 13.34 13.75L13.34 10.79C13.34 8.78 12.47 7.78 10.60 7.78C9.04 7.78 8.04 8.33 8.04 9.45C8.04 10.04 8.40 10.64 8.96 10.64C9.13 10.64 9.37 10.58 9.51 10.39C9.06 10.25 8.86 9.77 8.86 9.41C8.86 8.48 9.76 8.23 10.50 8.23C11.93 8.23 12.50 9.09 12.50 10.75L12.50 11.12C11.73 11.05 10.79 11.12 10.00 11.33C8.60 11.72 7.73 12.49 7.73 13.57C7.73 14.52 8.33 15.18 9.44 15.18C10.72 15.18 11.91 14.31 12.54 12.89L12.54 13.66C12.54 14.66 12.89 15.16 13.64 15.16C14.08 15.16 14.49 14.91 14.49 14.55C14.49 14.43 14.46 14.29 14.35 14.17ZM9.77 14.57C8.93 14.59 8.62 14.03 8.62 13.43C8.62 12.64 9.18 12.08 10.14 11.77C10.77 11.55 11.83 11.45 12.52 11.49C12.49 13.05 11.00 14.55 9.77 14.57ZM17.02 15.16C17.50 15.16 17.92 14.92 17.92 14.55C17.92 14.43 17.89 14.29 17.78 14.17C17.68 14.38 17.44 14.49 17.22 14.49C16.86 14.49 16.67 14.22 16.67 13.75L16.67 7.74C16.67 6.20 16.69 5.40 16.81 5.01C16.73 4.93 16.58 4.82 16.34 4.82C16.04 4.82 15.85 4.98 15.85 5.31L15.85 13.78C15.85 14.66 16.30 15.16 17.02 15.16ZM24.05 7.91C23.88 7.91 23.77 7.94 23.65 7.98C23.69 8.05 23.70 8.15 23.70 8.26C23.70 8.37 23.66 8.53 23.63 8.64L21.55 14.57L19.31 8.26C19.25 8.02 19.05 7.91 18.80 7.91C18.56 7.91 18.41 7.99 18.30 8.12C18.41 8.25 18.54 8.53 18.58 8.67L20.92 14.81C21 15.06 21.20 15.16 21.45 15.16C21.63 15.16 21.81 15.12 22.02 15.01L24.44 8.82C24.51 8.65 24.56 8.46 24.56 8.32C24.57 8.05 24.39 7.91 24.05 7.91ZM26.53 6.51C26.88 6.51 27.17 6.22 27.17 5.87C27.17 5.52 26.88 5.22 26.53 5.22C26.18 5.22 25.89 5.52 25.89 5.87C25.89 6.22 26.18 6.51 26.53 6.51ZM27.01 13.58L26.98 8.27C26.98 7.95 26.80 7.78 26.52 7.78C26.28 7.78 26.12 7.90 26.04 7.98C26.14 8.30 26.18 8.81 26.18 9.35L26.19 14.67C26.19 14.98 26.39 15.16 26.66 15.16C26.89 15.16 27.05 15.05 27.15 14.97C27.03 14.63 27.01 14.14 27.01 13.58ZM35.17 13.58L35.17 10.74C35.17 8.81 34.45 7.78 32.91 7.78C31.81 7.78 30.88 8.43 30.48 9.55L30.48 9.10C30.48 8.23 30.16 7.80 29.51 7.80C29.06 7.80 28.78 8.01 28.78 8.32C28.78 8.44 28.84 8.57 28.94 8.71C29.04 8.50 29.20 8.47 29.32 8.47C29.60 8.47 29.71 8.67 29.72 9.18L29.72 14.64C29.72 14.97 29.90 15.16 30.21 15.16C30.44 15.16 30.60 15.05 30.69 14.97C30.53 14.52 30.53 14.03 30.53 11.61C30.53 9.13 31.78 8.33 32.70 8.33C33.89 8.33 34.33 9.17 34.34 10.81L34.34 14.67C34.34 14.98 34.55 15.16 34.83 15.16C35.06 15.16 35.21 15.06 35.32 14.97C35.21 14.63 35.18 14.10 35.17 13.58ZM42.46 15.16C42.66 15.16 42.88 15.12 43.08 15.01L44.80 8.82L46.48 14.81C46.55 15.06 46.79 15.16 47.03 15.16C47.22 15.16 47.39 15.12 47.60 15.01L49.66 8.82C49.73 8.65 49.77 8.46 49.77 8.32C49.78 8.05 49.62 7.91 49.28 7.91C49.10 7.91 48.99 7.94 48.86 7.98C48.90 8.05 48.92 8.15 48.92 8.26C48.92 8.37 48.87 8.53 48.85 8.64L47.10 14.53L45.30 8.11C45.22 7.92 45.01 7.87 44.80 7.87C44.62 7.87 44.38 7.91 44.23 7.98C44.27 8.05 44.28 8.15 44.28 8.26C44.28 8.37 44.24 8.54 44.21 8.64L42.57 14.53L40.70 8.26C40.64 8.02 40.43 7.91 40.18 7.91C39.96 7.91 39.80 7.99 39.69 8.12C39.80 8.25 39.91 8.53 39.97 8.67L41.94 14.81C42.03 15.06 42.22 15.16 42.46 15.16ZM53.89 15.20C55.85 15.20 57.01 13.82 57.01 11.49C57.01 9.16 55.85 7.78 53.89 7.78C51.91 7.78 50.76 9.16 50.76 11.49C50.76 13.82 51.91 15.20 53.89 15.20ZM53.89 14.74C52.46 14.74 51.65 13.57 51.65 11.49C51.65 9.42 52.46 8.25 53.89 8.25C55.30 8.25 56.11 9.42 56.11 11.49C56.11 13.57 55.30 14.74 53.89 14.74ZM60.06 15.16C60.54 15.16 60.96 14.92 60.96 14.55C60.96 14.43 60.93 14.29 60.82 14.17C60.72 14.38 60.48 14.49 60.26 14.49C59.89 14.49 59.71 14.22 59.71 13.75L59.71 7.74C59.71 6.20 59.72 5.40 59.85 5.01C59.77 4.93 59.61 4.82 59.37 4.82C59.08 4.82 58.88 4.98 58.88 5.31L58.88 13.78C58.88 14.66 59.33 15.16 60.06 15.16ZM65.03 4.65C63.20 4.65 62.85 5.99 62.85 7.11L62.85 7.97L62.02 7.97C61.89 7.97 61.78 8.06 61.77 8.23L61.75 8.50C61.94 8.47 62.41 8.46 62.59 8.46L62.85 8.46L62.86 14.67C62.86 14.98 63.04 15.16 63.32 15.16C63.55 15.16 63.70 15.06 63.80 14.97C63.70 14.63 63.67 14.10 63.67 13.58L63.67 8.46L65.51 8.46C65.63 8.46 65.73 8.36 65.74 8.19L65.76 7.92C65.62 7.94 64.93 7.97 64.79 7.97L63.67 7.97L63.67 7.24C63.67 6.17 63.81 5.10 65.00 5.10C65.59 5.10 66.02 5.31 66.02 5.89C66.02 6.10 65.98 6.36 65.76 6.65C65.81 6.72 65.93 6.75 66.05 6.75C66.36 6.75 66.78 6.43 66.78 5.84C66.78 5.07 66.04 4.65 65.03 4.65ZM72.06 13.30C71.79 14.17 70.91 14.57 69.92 14.57C68.66 14.57 67.56 13.90 67.47 11.76C67.96 11.83 68.45 11.87 69.03 11.87C71.08 11.87 72.27 11.16 72.27 9.76C72.27 8.47 71.27 7.78 69.83 7.78C67.70 7.78 66.58 9.24 66.58 11.55C66.58 13.96 67.79 15.20 69.75 15.20C70.88 15.20 71.82 14.78 72.17 13.96C72.35 13.52 72.23 13.37 72.06 13.30ZM69.79 8.23C70.56 8.23 71.39 8.55 71.39 9.67C71.39 10.98 70.35 11.44 68.85 11.44C68.42 11.42 67.90 11.40 67.47 11.34C67.49 9.27 68.43 8.23 69.79 8.23ZM78.47 15.16C78.95 15.16 79.37 14.92 79.37 14.55C79.37 14.43 79.34 14.29 79.23 14.17C79.13 14.38 78.89 14.49 78.67 14.49C78.30 14.49 78.12 14.22 78.12 13.75L78.12 7.74C78.12 6.20 78.13 5.40 78.26 5.01C78.18 4.93 78.02 4.82 77.78 4.82C77.49 4.82 77.29 4.98 77.29 5.31L77.29 13.78C77.29 14.66 77.74 15.16 78.47 15.16ZM83.55 15.20C85.51 15.20 86.67 13.82 86.67 11.49C86.67 9.16 85.51 7.78 83.55 7.78C81.58 7.78 80.43 9.16 80.43 11.49C80.43 13.82 81.58 15.20 83.55 15.20ZM83.55 14.74C82.12 14.74 81.31 13.57 81.31 11.49C81.31 9.42 82.12 8.25 83.55 8.25C84.97 8.25 85.78 9.42 85.78 11.49C85.78 13.57 84.97 14.74 83.55 14.74ZM90.31 15.16C90.51 15.16 90.73 15.12 90.93 15.01L92.65 8.82L94.33 14.81C94.40 15.06 94.64 15.16 94.88 15.16C95.07 15.16 95.24 15.12 95.45 15.01L97.51 8.82C97.58 8.65 97.62 8.46 97.62 8.32C97.64 8.05 97.47 7.91 97.13 7.91C96.95 7.91 96.84 7.94 96.71 7.98C96.75 8.05 96.77 8.15 96.77 8.26C96.77 8.37 96.73 8.53 96.70 8.64L94.95 14.53L93.16 8.11C93.07 7.92 92.86 7.87 92.65 7.87C92.47 7.87 92.23 7.91 92.08 7.98C92.12 8.05 92.13 8.15 92.13 8.26C92.13 8.37 92.09 8.54 92.06 8.64L90.43 14.53L88.55 8.26C88.49 8.02 88.28 7.91 88.03 7.91C87.81 7.91 87.65 7.99 87.54 8.12C87.65 8.25 87.77 8.53 87.82 8.67L89.80 14.81C89.88 15.06 90.08 15.16 90.31 15.16ZM104.09 13.30C103.82 14.17 102.94 14.57 101.95 14.57C100.69 14.57 99.60 13.90 99.50 11.76C99.99 11.83 100.48 11.87 101.07 11.87C103.11 11.87 104.30 11.16 104.30 9.76C104.30 8.47 103.31 7.78 101.86 7.78C99.74 7.78 98.62 9.24 98.62 11.55C98.62 13.96 99.82 15.20 101.78 15.20C102.91 15.20 103.85 14.78 104.20 13.96C104.38 13.52 104.26 13.37 104.09 13.30ZM101.82 8.23C102.59 8.23 103.42 8.55 103.42 9.67C103.42 10.98 102.38 11.44 100.88 11.44C100.45 11.42 99.93 11.40 99.50 11.34C99.53 9.27 100.46 8.23 101.82 8.23Z"></path></g><defs data-v-423bf9ae=""><linearGradient data-v-423bf9ae="" gradientTransform="rotate(25)" id="fda532fe-c707-4424-a5f9-428e4be21f5e" x1="0%" y1="0%" x2="100%" y2="0%"><stop data-v-423bf9ae="" offset="0%" style="stop-color: rgb(8, 199, 214); stop-opacity: 1;"></stop><stop data-v-423bf9ae="" offset="100%" style="stop-color: rgb(2, 2, 62); stop-opacity: 1;"></stop></linearGradient></defs><g data-v-423bf9ae="" id="3a7e0eb7-f28a-49f8-a05c-2b6f213afb0d" transform="matrix(1.36742784028221,0,0,1.36742784028221,-41.48323776668026,-45.403628819199696)" stroke="none" fill="url(#fda532fe-c707-4424-a5f9-428e4be21f5e)"><g><path d="M34.468 54.923h64.398c-1.12-10.316-15.135-18.498-32.2-18.498-17.065 0-31.08 8.182-32.198 18.498zm65.802 2.667H33.063a1.334 1.334 0 0 1-1.334-1.333c0-12.406 15.673-22.499 34.937-22.499 19.265 0 34.938 10.093 34.938 22.499 0 .736-.596 1.333-1.334 1.333M34.395 87.942v3.783c0 2.791 3.465 5.183 6.301 5.183h51.94c2.836 0 6.3-2.392 6.3-5.183v-3.783H34.396zm58.241 11.633h-51.94c-4.147 0-8.967-3.43-8.967-7.85v-5.116a1.334 1.334 0 0 1 1.332-1.334h67.21c.737 0 1.333.597 1.333 1.334v5.116c0 4.42-4.82 7.85-8.968 7.85"></path><path d="M46.555 46.522a1.555 1.555 0 1 1-3.11 0 1.555 1.555 0 0 1 3.11 0M55.944 48.94a1.555 1.555 0 1 1-3.11-.001 1.555 1.555 0 0 1 3.11 0M58.333 41.16a1.555 1.555 0 1 1-3.111.001 1.555 1.555 0 0 1 3.11 0M90.236 47.383a1.556 1.556 0 1 1-3.111 0 1.556 1.556 0 0 1 3.111 0M81.597 42.37a1.555 1.555 0 1 1-3.11 0 1.555 1.555 0 0 1 3.11 0M76.542 48.078a1.556 1.556 0 1 1-3.112 0 1.556 1.556 0 0 1 3.112 0M71.458 40.48a1.556 1.556 0 1 1-3.112 0 1.556 1.556 0 0 1 3.112 0M65.944 44.967a1.556 1.556 0 1 1-3.11 0 1.556 1.556 0 0 1 3.11 0M97.01 71.39h-6.486c-1.39 3.602-3.01 7.14-4.288 7.05-2.257-.16-6.57-6.439-17.792-7.05H36.322c-3.056 0-5.556 2.5-5.556 5.555 0 3.056 2.5 5.556 5.556 5.556H97.01c3.056 0 5.556-2.5 5.556-5.556 0-3.055-2.5-5.555-5.556-5.555M52.022 67.748c-2.737 0-5.303-1.158-7.954-2.355-.482-.216-.973-.439-1.477-.66-5.751-2.519-7.964-.904-9.499 1.215a1.333 1.333 0 1 1-2.16-1.563c2.877-3.974 6.921-4.639 12.73-2.094.513.225 1.013.45 1.502.672 4.55 2.053 7.558 3.409 11.756.265 5.83-4.364 9.84-3.461 18.26-.175 5.86 2.285 8.53.775 11.624-.973.883-.499 1.798-1.014 2.794-1.438 4.86-2.07 11.764 3.05 12.533 3.64.585.447.697 1.283.25 1.867a1.33 1.33 0 0 1-1.87.25c-1.755-1.34-6.958-4.547-9.87-3.303-.86.365-1.669.822-2.525 1.306-3.22 1.819-6.87 3.877-13.904 1.135-7.911-3.086-10.874-3.78-15.693-.174-2.329 1.743-4.46 2.384-6.497 2.385"></path></g></g><!----><g data-v-423bf9ae="" id="5995b3c6-8612-469e-9709-b28b64c1b8f6" fill="#000000" transform="matrix(1.6085838866074529,0,0,1.6085838866074529,115.99295182489948,54.27344235905684)"><path d="M7.20 9.21L7.20 9.21L7.20 9.21Q7.66 9.21 7.92 9.46L7.92 9.46L7.92 9.46Q8.18 9.72 8.18 10.16L8.18 10.16L8.18 10.16Q8.18 10.28 8.15 10.39L8.15 10.39L8.15 10.39Q8.13 10.51 8.11 10.60L8.11 10.60L8.11 10.60Q7.92 10.57 7.70 10.55L7.70 10.55L7.70 10.55Q7.48 10.53 7.17 10.53L7.17 10.53L7.17 10.53Q6.57 10.53 5.95 10.63L5.95 10.63L5.95 10.63Q5.33 10.74 4.77 10.81L4.77 10.81L4.77 10.81Q4.45 11.55 4.19 12.24L4.19 12.24L4.19 12.24Q3.92 12.94 3.73 13.51L3.73 13.51L3.73 13.51Q3.54 14.08 3.44 14.50L3.44 14.50L3.44 14.50Q3.33 14.92 3.32 15.13L3.32 15.13L3.32 15.13Q4.45 14.90 5.61 14.73L5.61 14.73L5.61 14.73Q6.76 14.56 8.04 14.48L8.04 14.48L8.04 14.48Q8.19 14.71 8.29 14.99L8.29 14.99L8.29 14.99Q8.40 15.27 8.40 15.60L8.40 15.60L8.40 15.60Q8.40 15.68 8.40 15.78L8.40 15.78L8.40 15.78Q8.40 15.88 8.37 15.97L8.37 15.97L8.37 15.97Q7.98 15.96 7.55 15.95L7.55 15.95L7.55 15.95Q7.11 15.95 6.41 15.95L6.41 15.95L6.41 15.95Q5.95 15.95 5.54 15.97L5.54 15.97L5.54 15.97Q5.12 15.99 4.70 16.03L4.70 16.03L4.70 16.03Q4.28 16.07 3.81 16.14L3.81 16.14L3.81 16.14Q3.35 16.21 2.76 16.31L2.76 16.31L2.76 16.31Q2.11 16.06 1.51 15.08L1.51 15.08L1.51 15.08Q1.75 14.57 2.18 13.54L2.18 13.54L2.18 13.54Q2.60 12.52 3.26 10.79L3.26 10.79L3.26 10.79Q2.63 10.60 2.44 10.09L2.44 10.09L2.44 10.09Q2.51 10.02 2.84 9.92L2.84 9.92L2.84 9.92Q3.18 9.81 3.67 9.70L3.67 9.70L3.67 9.70Q3.88 9.16 4.03 8.75L4.03 8.75L4.03 8.75Q4.17 8.34 4.28 7.99L4.28 7.99L4.28 7.99Q4.40 7.63 4.49 7.29L4.49 7.29L4.49 7.29Q4.58 6.94 4.66 6.54L4.66 6.54L4.66 6.54Q4.17 6.51 3.89 6.27L3.89 6.27L3.89 6.27Q3.61 6.02 3.61 5.63L3.61 5.63L3.61 5.63Q3.61 5.52 3.65 5.36L3.65 5.36L3.65 5.36Q3.68 5.21 3.72 5.10L3.72 5.10L3.72 5.10Q4.00 5.14 4.26 5.15L4.26 5.15L4.26 5.15Q4.52 5.17 4.94 5.17L4.94 5.17L4.94 5.17Q5.82 5.17 6.59 5.12L6.59 5.12L6.59 5.12Q7.36 5.07 7.99 5.01L7.99 5.01L7.99 5.01Q8.61 4.96 9.06 4.91L9.06 4.91L9.06 4.91Q9.51 4.86 9.74 4.86L9.74 4.86L9.74 4.86Q10.07 4.86 10.32 5.19L10.32 5.19L10.32 5.19Q10.57 5.53 10.70 6.15L10.70 6.15L10.70 6.15Q10.26 6.10 9.99 6.09L9.99 6.09L9.99 6.09Q9.72 6.08 9.51 6.08L9.51 6.08L9.51 6.08Q8.74 6.08 8.10 6.15L8.10 6.15L8.10 6.15Q7.46 6.23 6.87 6.31L6.87 6.31L6.87 6.31Q6.79 6.44 6.69 6.64L6.69 6.64L6.69 6.64Q6.58 6.83 6.41 7.18L6.41 7.18L6.41 7.18Q6.24 7.53 6.00 8.06L6.00 8.06L6.00 8.06Q5.75 8.60 5.40 9.39L5.40 9.39L5.40 9.39Q5.94 9.31 6.41 9.26L6.41 9.26L6.41 9.26Q6.87 9.21 7.20 9.21ZM19.00 8.39L19.00 8.39L19.00 8.39Q19.36 8.50 19.68 8.88L19.68 8.88L19.68 8.88Q20.01 9.27 20.16 9.73L20.16 9.73L20.16 9.73Q20.01 10.11 19.68 10.64L19.68 10.64L19.68 10.64Q19.36 11.17 19.04 11.72L19.04 11.72L19.04 11.72Q18.72 12.28 18.46 12.78L18.46 12.78L18.46 12.78Q18.20 13.27 18.16 13.59L18.16 13.59L18.16 13.59Q18.38 13.36 18.66 13.04L18.66 13.04L18.66 13.04Q18.93 12.73 19.19 12.41L19.19 12.41L19.19 12.41Q19.45 12.10 19.67 11.84L19.67 11.84L19.67 11.84Q19.89 11.58 20.02 11.45L20.02 11.45L20.02 11.45Q20.29 11.17 20.65 10.80L20.65 10.80L20.65 10.80Q21.01 10.43 21.41 10.10L21.41 10.10L21.41 10.10Q21.81 9.77 22.22 9.54L22.22 9.54L22.22 9.54Q22.62 9.31 22.96 9.31L22.96 9.31L22.96 9.31Q23.32 9.31 23.57 9.55L23.57 9.55L23.57 9.55Q23.81 9.80 23.95 10.07L23.95 10.07L23.95 10.07Q23.95 10.09 23.85 10.14L23.85 10.14L23.85 10.14Q23.74 10.19 23.55 10.42L23.55 10.42L23.55 10.42Q23.35 10.67 23.11 11.11L23.11 11.11L23.11 11.11Q22.86 11.55 22.63 12.06L22.63 12.06L22.63 12.06Q22.40 12.57 22.25 13.10L22.25 13.10L22.25 13.10Q22.09 13.64 22.09 14.07L22.09 14.07L22.09 14.07Q22.09 14.42 22.18 14.52L22.18 14.52L22.18 14.52Q22.27 14.62 22.44 14.62L22.44 14.62L22.44 14.62Q22.60 14.62 22.76 14.55L22.76 14.55L22.76 14.55Q22.93 14.48 23.03 14.48L23.03 14.48L23.03 14.48Q23.09 14.50 23.12 14.60L23.12 14.60L23.12 14.60Q23.16 14.69 23.16 14.76L23.16 14.76L23.16 14.76Q23.04 14.85 22.89 14.95L22.89 14.95L22.89 14.95Q22.74 15.05 22.57 15.13L22.57 15.13L22.57 15.13Q22.40 15.22 22.24 15.27L22.24 15.27L22.24 15.27Q22.08 15.33 21.95 15.33L21.95 15.33L21.95 15.33Q21.55 15.33 21.29 15.21L21.29 15.21L21.29 15.21Q21.03 15.09 20.88 14.90L20.88 14.90L20.88 14.90Q20.73 14.70 20.68 14.43L20.68 14.43L20.68 14.43Q20.62 14.15 20.62 13.85L20.62 13.85L20.62 13.85Q20.62 13.68 20.65 13.47L20.65 13.47L20.65 13.47Q20.68 13.26 20.76 12.97L20.76 12.97L20.76 12.97Q20.85 12.68 21 12.29L21 12.29L21 12.29Q21.15 11.89 21.39 11.33L21.39 11.33L21.39 11.33Q21.36 11.33 21.01 11.52L21.01 11.52L21.01 11.52Q20.66 11.72 20.26 12.12L20.26 12.12L20.26 12.12Q19.60 12.75 19.07 13.37L19.07 13.37L19.07 13.37Q18.55 13.99 18.00 14.74L18.00 14.74L18.00 14.74Q17.70 15.18 17.46 15.48L17.46 15.48L17.46 15.48Q17.23 15.78 17.07 15.88L17.07 15.88L17.07 15.88Q16.77 15.71 16.63 15.41L16.63 15.41L16.63 15.41Q16.49 15.11 16.42 14.78L16.42 14.78L16.42 14.78Q16.42 14.52 16.50 14.11L16.50 14.11L16.50 14.11Q16.58 13.71 16.71 13.21L16.71 13.21L16.71 13.21Q16.84 12.71 17.04 12.17L17.04 12.17L17.04 12.17Q17.23 11.62 17.47 11.07L17.47 11.07L17.47 11.07Q18.00 9.84 18.45 9.14L18.45 9.14L18.45 9.14Q18.89 8.44 19.00 8.39ZM31.60 12.56L31.60 12.56L31.60 12.56Q32.12 10.49 32.61 9.53L32.61 9.53L32.61 9.53Q33.11 8.57 33.66 8.57L33.66 8.57L33.66 8.57Q34.05 8.57 34.59 8.95L34.59 8.95L34.59 8.95Q34.15 9.74 33.90 10.27L33.90 10.27L33.90 10.27Q33.66 10.79 33.54 11.23L33.54 11.23L33.54 11.23Q33.31 12.07 33.04 12.97L33.04 12.97L33.04 12.97Q32.77 13.87 32.52 14.70L32.52 14.70L32.52 14.70Q32.26 15.53 32.04 16.19L32.04 16.19L32.04 16.19Q31.82 16.86 31.70 17.21L31.70 17.21L31.70 17.21Q31.39 18.03 31.09 18.61L31.09 18.61L31.09 18.61Q30.79 19.18 30.46 19.54L30.46 19.54L30.46 19.54Q30.14 19.91 29.79 20.08L29.79 20.08L29.79 20.08Q29.43 20.24 29.01 20.24L29.01 20.24L29.01 20.24Q28.70 20.24 28.40 20.18L28.40 20.18L28.40 20.18Q28.10 20.12 27.83 20.01L27.83 20.01L27.83 20.01Q27.57 19.91 27.36 19.75L27.36 19.75L27.36 19.75Q27.15 19.60 27.02 19.43L27.02 19.43L27.02 19.43Q27.03 19.33 27.11 19.24L27.11 19.24L27.11 19.24Q27.19 19.15 27.26 19.14L27.26 19.14L27.26 19.14Q27.50 19.39 27.76 19.50L27.76 19.50L27.76 19.50Q28.01 19.61 28.38 19.61L28.38 19.61L28.38 19.61Q28.83 19.61 29.17 19.35L29.17 19.35L29.17 19.35Q29.51 19.08 29.86 18.32L29.86 18.32L29.86 18.32Q30.21 17.56 30.62 16.18L30.62 16.18L30.62 16.18Q31.02 14.80 31.60 12.56ZM33.88 7.46L33.88 7.46L33.88 7.46Q33.88 7.39 33.92 7.22L33.92 7.22L33.92 7.22Q33.75 7.06 33.75 6.75L33.75 6.75L33.75 6.75Q33.75 6.62 33.79 6.40L33.79 6.40L33.79 6.40Q33.82 6.17 33.89 5.91L33.89 5.91L33.89 5.91Q33.95 5.66 34.03 5.39L34.03 5.39L34.03 5.39Q34.10 5.12 34.19 4.93L34.19 4.93L34.19 4.93Q34.36 4.93 34.60 5.02L34.60 5.02L34.60 5.02Q34.85 5.11 35.10 5.26L35.10 5.26L35.10 5.26Q35.35 5.40 35.56 5.58L35.56 5.58L35.56 5.58Q35.77 5.75 35.88 5.91L35.88 5.91L35.88 5.91Q35.71 6.06 35.46 6.34L35.46 6.34L35.46 6.34Q35.21 6.62 34.97 6.92L34.97 6.92L34.97 6.92Q34.73 7.22 34.54 7.48L34.54 7.48L34.54 7.48Q34.34 7.74 34.30 7.85L34.30 7.85L34.30 7.85Q34.13 7.83 34.01 7.71L34.01 7.71L34.01 7.71Q33.88 7.59 33.88 7.46ZM43.25 15.67L43.25 15.67L43.25 15.67Q42.45 15.58 41.97 14.97L41.97 14.97L41.97 14.97Q41.50 14.35 41.50 13.40L41.50 13.40L41.50 13.40Q41.50 12.84 41.66 12.24L41.66 12.24L41.66 12.24Q41.83 11.63 42.14 11.07L42.14 11.07L42.14 11.07Q42.45 10.50 42.87 10.00L42.87 10.00L42.87 10.00Q43.29 9.49 43.78 9.13L43.78 9.13L43.78 9.13Q44.55 8.55 45.22 8.55L45.22 8.55L45.22 8.55Q45.67 8.79 46.10 9.55L46.10 9.55L46.10 9.55Q46.17 9.55 46.23 9.54L46.23 9.54L46.23 9.54Q46.28 9.53 46.35 9.53L46.35 9.53L46.35 9.53Q47.10 9.53 47.10 10.85L47.10 10.85L47.10 10.85Q47.10 11.73 46.81 12.52L46.81 12.52L46.81 12.52Q46.52 13.31 46.01 13.96L46.01 13.96L46.01 13.96Q45.50 14.60 44.79 15.04L44.79 15.04L44.79 15.04Q44.09 15.48 43.25 15.67ZM43.96 11.26L43.96 11.26L43.96 11.26Q43.72 11.58 43.51 11.96L43.51 11.96L43.51 11.96Q43.30 12.33 43.15 12.72L43.15 12.72L43.15 12.72Q42.99 13.10 42.91 13.46L42.91 13.46L42.91 13.46Q42.83 13.82 42.83 14.10L42.83 14.10L42.83 14.10Q42.83 14.43 42.94 14.74L42.94 14.74L42.94 14.74Q43.05 15.05 43.19 15.09L43.19 15.09L43.19 15.09Q43.82 14.95 44.35 14.57L44.35 14.57L44.35 14.57Q44.87 14.18 45.26 13.61L45.26 13.61L45.26 13.61Q45.64 13.03 45.86 12.31L45.86 12.31L45.86 12.31Q46.07 11.58 46.07 10.75L46.07 10.75L46.07 10.75Q46.07 10.39 46.03 10.18L46.03 10.18L46.03 10.18Q45.99 9.97 45.89 9.81L45.89 9.81L45.89 9.81Q45.28 10.00 44.79 10.40L44.79 10.40L44.79 10.40Q44.31 10.81 43.96 11.26ZM60.03 13.01L60.03 13.01L60.03 13.01Q59.71 14.03 59.39 14.87L59.39 14.87L59.39 14.87Q59.07 15.71 58.70 16.41L58.70 16.41L58.70 16.41Q58.34 17.12 57.92 17.72L57.92 17.72L57.92 17.72Q57.50 18.31 56.99 18.84L56.99 18.84L56.99 18.84Q56.35 19.52 55.66 19.87L55.66 19.87L55.66 19.87Q54.98 20.23 54.29 20.23L54.29 20.23L54.29 20.23Q53.94 20.23 53.60 20.15L53.60 20.15L53.60 20.15Q53.26 20.08 52.96 19.94L52.96 19.94L52.96 19.94Q52.65 19.81 52.42 19.64L52.42 19.64L52.42 19.64Q52.19 19.46 52.09 19.26L52.09 19.26L52.09 19.26Q52.09 19.10 52.29 18.97L52.29 18.97L52.29 18.97Q52.46 19.12 52.57 19.21L52.57 19.21L52.57 19.21Q52.68 19.29 52.79 19.35L52.79 19.35L52.79 19.35Q52.89 19.40 53.01 19.42L53.01 19.42L53.01 19.42Q53.13 19.43 53.28 19.43L53.28 19.43L53.28 19.43Q54.08 19.43 54.85 18.96L54.85 18.96L54.85 18.96Q55.61 18.49 56.29 17.63L56.29 17.63L56.29 17.63Q56.97 16.77 57.53 15.55L57.53 15.55L57.53 15.55Q58.09 14.32 58.48 12.81L58.48 12.81L58.48 12.81Q58.30 13.09 58.03 13.50L58.03 13.50L58.03 13.50Q57.76 13.90 57.44 14.30L57.44 14.30L57.44 14.30Q57.12 14.70 56.78 15.02L56.78 15.02L56.78 15.02Q56.43 15.34 56.11 15.46L56.11 15.46L56.11 15.46Q55.89 15.44 55.64 15.37L55.64 15.37L55.64 15.37Q55.40 15.29 55.18 15.15L55.18 15.15L55.18 15.15Q54.96 15.01 54.80 14.81L54.80 14.81L54.80 14.81Q54.63 14.62 54.57 14.36L54.57 14.36L54.57 14.36Q54.57 13.96 54.60 13.71L54.60 13.71L54.60 13.71Q54.63 13.47 54.70 13.17L54.70 13.17L54.70 13.17Q54.82 12.64 55.07 11.97L55.07 11.97L55.07 11.97Q55.31 11.30 55.64 10.65L55.64 10.65L55.64 10.65Q55.97 10.00 56.37 9.43L56.37 9.43L56.37 9.43Q56.77 8.86 57.20 8.54L57.20 8.54L57.20 8.54Q57.32 8.54 57.48 8.56L57.48 8.56L57.48 8.56Q57.65 8.58 57.83 8.64L57.83 8.64L57.83 8.64Q58.02 8.69 58.18 8.77L58.18 8.77L58.18 8.77Q58.35 8.85 58.48 8.97L58.48 8.97L58.48 8.97Q58.32 9.11 57.81 9.91L57.81 9.91L57.81 9.91Q57.29 10.71 56.66 12.21L56.66 12.21L56.66 12.21Q56.59 12.36 56.49 12.66L56.49 12.66L56.49 12.66Q56.39 12.95 56.30 13.27L56.30 13.27L56.30 13.27Q56.21 13.59 56.14 13.90L56.14 13.90L56.14 13.90Q56.07 14.21 56.07 14.39L56.07 14.39L56.07 14.39Q56.07 14.50 56.11 14.56L56.11 14.56L56.11 14.56Q56.14 14.62 56.17 14.64L56.17 14.64L56.17 14.64Q56.42 14.60 56.84 14.23L56.84 14.23L56.84 14.23Q57.26 13.86 57.79 13.08L57.79 13.08L57.79 13.08Q58.13 12.57 58.41 12.07L58.41 12.07L58.41 12.07Q58.69 11.58 58.96 11.07L58.96 11.07L58.96 11.07Q59.23 10.57 59.53 10.04L59.53 10.04L59.53 10.04Q59.82 9.51 60.16 8.95L60.16 8.95L60.16 8.95Q60.34 8.95 60.55 8.99L60.55 8.99L60.55 8.99Q60.76 9.03 60.96 9.09L60.96 9.09L60.96 9.09Q61.15 9.16 61.30 9.23L61.30 9.23L61.30 9.23Q61.45 9.31 61.52 9.39L61.52 9.39L61.52 9.39Q61.08 10.32 60.70 11.20L60.70 11.20L60.70 11.20Q60.33 12.08 60.03 13.01ZM78.93 14.28L78.93 14.28L78.93 14.28Q78.93 13.66 79.23 12.55L79.23 12.55L79.23 12.55Q79.52 11.44 80.05 9.95L80.05 9.95L80.05 9.95Q80.92 7.59 81.68 6.01L81.68 6.01L81.68 6.01Q82.45 4.44 83.17 3.56L83.17 3.56L83.17 3.56Q83.34 3.58 83.59 3.70L83.59 3.70L83.59 3.70Q83.83 3.81 84.07 3.94L84.07 3.94L84.07 3.94Q84.31 4.07 84.50 4.21L84.50 4.21L84.50 4.21Q84.69 4.35 84.74 4.44L84.74 4.44L84.74 4.44Q83.65 5.73 82.82 7.21L82.82 7.21L82.82 7.21Q82.00 8.69 81.31 10.61L81.31 10.61L81.31 10.61Q80.72 12.26 80.42 13.59L80.42 13.59L80.42 13.59Q80.11 14.91 80.11 15.79L80.11 15.79L80.11 15.79Q80.11 16.03 80.11 16.09L80.11 16.09L80.11 16.09Q80.11 16.14 80.12 16.20L80.12 16.20L80.12 16.20Q79.93 16.17 79.79 16.10L79.79 16.10L79.79 16.10Q79.65 16.03 79.60 15.93L79.60 15.93L79.60 15.93Q79.58 15.86 79.45 15.73L79.45 15.73L79.45 15.73Q79.32 15.60 79.23 15.53L79.23 15.53L79.23 15.53Q79.10 15.44 79.02 15.09L79.02 15.09L79.02 15.09Q78.93 14.73 78.93 14.28ZM89.26 14.24L89.26 14.24L89.26 14.24Q89.26 14.11 89.28 13.92L89.28 13.92L89.28 13.92Q89.31 13.73 89.36 13.42L89.36 13.42L89.36 13.42Q89.42 13.10 89.51 12.66L89.51 12.66L89.51 12.66Q89.60 12.21 89.74 11.58L89.74 11.58L89.74 11.58Q89.77 11.44 89.87 11.13L89.87 11.13L89.87 11.13Q89.96 10.82 90.13 10.48L90.13 10.48L90.13 10.48Q90.29 10.14 90.52 9.81L90.52 9.81L90.52 9.81Q90.75 9.49 91.07 9.34L91.07 9.34L91.07 9.34Q91.31 9.39 91.70 9.63L91.70 9.63L91.70 9.63Q92.09 9.86 92.37 10.26L92.37 10.26L92.37 10.26Q92.05 10.63 91.83 10.99L91.83 10.99L91.83 10.99Q91.62 11.35 91.44 11.75L91.44 11.75L91.44 11.75Q91.27 12.14 91.12 12.56L91.12 12.56L91.12 12.56Q90.97 12.98 90.79 13.44L90.79 13.44L90.79 13.44Q90.64 13.83 90.51 14.25L90.51 14.25L90.51 14.25Q90.38 14.66 90.37 14.97L90.37 14.97L90.37 14.97Q90.37 15.22 90.36 15.32L90.36 15.32L90.36 15.32Q90.36 15.43 90.29 15.43L90.29 15.43L90.29 15.43Q90.23 15.43 90.06 15.36L90.06 15.36L90.06 15.36Q89.89 15.29 89.72 15.14L89.72 15.14L89.72 15.14Q89.54 14.99 89.40 14.77L89.40 14.77L89.40 14.77Q89.26 14.55 89.26 14.24ZM91.94 8.16L91.94 8.16L91.94 8.16Q91.94 8.08 91.98 7.91L91.98 7.91L91.98 7.91Q91.91 7.84 91.86 7.70L91.86 7.70L91.86 7.70Q91.81 7.56 91.81 7.45L91.81 7.45L91.81 7.45Q91.81 7.32 91.85 7.11L91.85 7.11L91.85 7.11Q91.88 6.89 91.94 6.64L91.94 6.64L91.94 6.64Q91.99 6.38 92.08 6.11L92.08 6.11L92.08 6.11Q92.16 5.84 92.25 5.61L92.25 5.61L92.25 5.61Q92.41 5.61 92.66 5.71L92.66 5.71L92.66 5.71Q92.90 5.80 93.16 5.94L93.16 5.94L93.16 5.94Q93.41 6.09 93.62 6.27L93.62 6.27L93.62 6.27Q93.83 6.44 93.94 6.59L93.94 6.59L93.94 6.59Q93.79 6.75 93.53 7.02L93.53 7.02L93.53 7.02Q93.28 7.29 93.04 7.59L93.04 7.59L93.04 7.59Q92.81 7.90 92.61 8.16L92.61 8.16L92.61 8.16Q92.41 8.43 92.36 8.54L92.36 8.54L92.36 8.54Q92.19 8.51 92.06 8.39L92.06 8.39L92.06 8.39Q91.94 8.27 91.94 8.16ZM100.23 19.22L100.23 19.22L100.23 19.22Q99.88 19.08 99.81 18.69L99.81 18.69L99.81 18.69Q99.75 18.31 99.33 18.07L99.33 18.07L99.33 18.07Q99.44 17.36 99.58 16.63L99.58 16.63L99.58 16.63Q99.72 15.90 99.94 14.97L99.94 14.97L99.94 14.97Q100.16 14.04 100.48 12.80L100.48 12.80L100.48 12.80Q100.81 11.56 101.32 9.80L101.32 9.80L101.32 9.80Q100.86 9.80 100.59 9.81L100.59 9.81L100.59 9.81Q100.32 9.83 100.07 9.87L100.07 9.87L100.07 9.87Q100.02 9.81 99.98 9.72L99.98 9.72L99.98 9.72Q99.95 9.62 99.95 9.53L99.95 9.53L99.95 9.53Q100.09 9.48 100.52 9.39L100.52 9.39L100.52 9.39Q100.95 9.30 101.47 9.23L101.47 9.23L101.47 9.23Q101.81 8.16 102.24 7.32L102.24 7.32L102.24 7.32Q102.68 6.47 103.18 5.87L103.18 5.87L103.18 5.87Q103.68 5.26 104.24 4.94L104.24 4.94L104.24 4.94Q104.80 4.62 105.38 4.62L105.38 4.62L105.38 4.62Q105.55 4.62 105.70 4.64L105.70 4.64L105.70 4.64Q105.85 4.66 105.94 4.66L105.94 4.66L105.94 4.66Q106.06 4.56 106.27 4.49L106.27 4.49L106.27 4.49Q106.48 4.41 106.64 4.41L106.64 4.41L106.64 4.41Q106.81 4.41 107.07 4.59L107.07 4.59L107.07 4.59Q106.96 4.79 106.83 5.12L106.83 5.12L106.83 5.12Q106.71 5.46 106.62 5.78L106.62 5.78L106.62 5.78Q106.27 6.82 105.88 7.13L105.88 7.13L105.88 7.13Q105.73 7.13 105.71 6.72L105.71 6.72L105.71 6.72Q105.70 6.43 105.63 6.15L105.63 6.15L105.63 6.15Q105.57 6.02 105.55 5.92L105.55 5.92L105.55 5.92Q105.53 5.82 105.53 5.67L105.53 5.67L105.53 5.67Q105.53 5.59 105.55 5.47L105.55 5.47L105.55 5.47Q105.56 5.35 105.60 5.07L105.60 5.07L105.60 5.07Q105.36 5.07 105.08 5.36L105.08 5.36L105.08 5.36Q104.79 5.66 104.47 6.20L104.47 6.20L104.47 6.20Q104.16 6.73 103.84 7.48L103.84 7.48L103.84 7.48Q103.52 8.22 103.22 9.11L103.22 9.11L104.40 9.07L104.40 9.07Q104.47 9.14 104.52 9.39L104.52 9.39L104.52 9.39Q104.57 9.63 104.58 9.90L104.58 9.90L103.04 9.81L103.04 9.81Q102.51 11.40 102.05 12.84L102.05 12.84L102.05 12.84Q101.58 14.28 101.22 15.50L101.22 15.50L101.22 15.50Q100.86 16.72 100.60 17.68L100.60 17.68L100.60 17.68Q100.34 18.63 100.23 19.22ZM116.20 9.38L116.20 9.38L116.20 9.38Q116.14 10.25 115.89 10.87L115.89 10.87L115.89 10.87Q115.64 11.49 115.17 11.96L115.17 11.96L115.17 11.96Q114.70 12.43 114.03 12.81L114.03 12.81L114.03 12.81Q113.36 13.19 112.46 13.54L112.46 13.54L112.46 13.54Q112.46 13.62 112.45 13.71L112.45 13.71L112.45 13.71Q112.45 13.80 112.45 13.90L112.45 13.90L112.45 13.90Q112.45 14.08 112.48 14.28L112.48 14.28L112.48 14.28Q112.50 14.48 112.57 14.64L112.57 14.64L112.57 14.64Q112.64 14.81 112.77 14.92L112.77 14.92L112.77 14.92Q112.90 15.02 113.09 15.02L113.09 15.02L113.09 15.02Q113.47 15.02 113.83 14.85L113.83 14.85L113.83 14.85Q114.20 14.69 114.53 14.44L114.53 14.44L114.53 14.44Q114.86 14.20 115.14 13.91L115.14 13.91L115.14 13.91Q115.43 13.62 115.65 13.38L115.65 13.38L115.65 13.38Q115.79 13.51 115.89 13.62L115.89 13.62L115.89 13.62Q115.26 14.46 114.51 15.02L114.51 15.02L114.51 15.02Q113.76 15.57 113.09 15.72L113.09 15.72L113.09 15.72Q112.13 15.61 111.59 15.02L111.59 15.02L111.59 15.02Q111.05 14.42 111.05 13.58L111.05 13.58L111.05 13.58Q111.05 13.01 111.21 12.41L111.21 12.41L111.21 12.41Q111.37 11.82 111.66 11.26L111.66 11.26L111.66 11.26Q111.94 10.71 112.33 10.22L112.33 10.22L112.33 10.22Q112.71 9.73 113.16 9.37L113.16 9.37L113.16 9.37Q113.60 9.00 114.06 8.79L114.06 8.79L114.06 8.79Q114.53 8.58 115.00 8.58L115.00 8.58L115.00 8.58Q115.64 8.67 116.20 9.38ZM115.23 9.84L115.23 9.84L115.23 9.84Q114.86 9.90 114.45 10.15L114.45 10.15L114.45 10.15Q114.04 10.40 113.69 10.82L113.69 10.82L113.69 10.82Q113.33 11.24 113.04 11.80L113.04 11.80L113.04 11.80Q112.74 12.36 112.57 13.01L112.57 13.01L112.57 13.01Q113.69 12.45 114.44 11.63L114.44 11.63L114.44 11.63Q115.18 10.81 115.23 9.84ZM135.80 9.81L135.00 9.81L135.00 9.81Q134.93 9.73 134.88 9.46L134.88 9.46L134.88 9.46Q134.82 9.18 134.82 8.99L134.82 8.99L134.82 8.99Q135.18 9.02 135.52 9.04L135.52 9.04L135.52 9.04Q135.86 9.06 136.14 9.07L136.14 9.07L136.14 9.07Q136.35 8.65 136.59 8.24L136.59 8.24L136.59 8.24Q136.84 7.83 137.07 7.48L137.07 7.48L137.07 7.48Q137.30 7.14 137.50 6.90L137.50 6.90L137.50 6.90Q137.70 6.66 137.82 6.59L137.82 6.59L137.82 6.59Q137.96 6.59 138.17 6.64L138.17 6.64L138.17 6.64Q138.39 6.69 138.61 6.77L138.61 6.77L138.61 6.77Q138.84 6.85 139.02 6.93L139.02 6.93L139.02 6.93Q139.20 7.01 139.27 7.10L139.27 7.10L139.27 7.10Q138.85 7.63 138.55 8.09L138.55 8.09L138.55 8.09Q138.25 8.54 137.90 9.13L137.90 9.13L137.90 9.13Q138.18 9.13 138.47 9.11L138.47 9.11L138.47 9.11Q138.75 9.10 139.05 9.07L139.05 9.07L139.05 9.07Q139.12 9.14 139.16 9.25L139.16 9.25L139.16 9.25Q139.20 9.35 139.20 9.46L139.20 9.46L139.20 9.46Q138.52 9.72 137.54 9.74L137.54 9.74L137.54 9.74Q137.19 10.42 136.91 11.08L136.91 11.08L136.91 11.08Q136.64 11.75 136.45 12.36L136.45 12.36L136.45 12.36Q136.26 12.98 136.16 13.52L136.16 13.52L136.16 13.52Q136.05 14.07 136.05 14.50L136.05 14.50L136.05 14.50Q136.05 15.12 136.51 15.19L136.51 15.19L136.51 15.19Q136.93 15.13 137.31 14.98L137.31 14.98L137.31 14.98Q137.69 14.83 137.98 14.59L137.98 14.59L137.98 14.59Q138.07 14.71 138.08 14.80L138.08 14.80L138.08 14.80Q138.00 14.92 137.79 15.09L137.79 15.09L137.79 15.09Q137.59 15.26 137.35 15.42L137.35 15.42L137.35 15.42Q137.12 15.58 136.89 15.69L136.89 15.69L136.89 15.69Q136.67 15.81 136.56 15.82L136.56 15.82L136.56 15.82Q136.21 15.81 135.86 15.67L135.86 15.67L135.86 15.67Q135.51 15.53 135.22 15.32L135.22 15.32L135.22 15.32Q134.93 15.11 134.75 14.85L134.75 14.85L134.75 14.85Q134.57 14.59 134.57 14.34L134.57 14.34L134.57 14.34Q134.57 14 134.66 13.49L134.66 13.49L134.66 13.49Q134.75 12.98 134.92 12.38L134.92 12.38L134.92 12.38Q135.09 11.77 135.31 11.12L135.31 11.12L135.31 11.12Q135.53 10.46 135.80 9.81L135.80 9.81ZM147.76 15.67L147.76 15.67L147.76 15.67Q146.96 15.58 146.48 14.97L146.48 14.97L146.48 14.97Q146.01 14.35 146.01 13.40L146.01 13.40L146.01 13.40Q146.01 12.84 146.17 12.24L146.17 12.24L146.17 12.24Q146.34 11.63 146.65 11.07L146.65 11.07L146.65 11.07Q146.96 10.50 147.38 10.00L147.38 10.00L147.38 10.00Q147.80 9.49 148.29 9.13L148.29 9.13L148.29 9.13Q149.06 8.55 149.73 8.55L149.73 8.55L149.73 8.55Q150.18 8.79 150.61 9.55L150.61 9.55L150.61 9.55Q150.68 9.55 150.74 9.54L150.74 9.54L150.74 9.54Q150.79 9.53 150.86 9.53L150.86 9.53L150.86 9.53Q151.61 9.53 151.61 10.85L151.61 10.85L151.61 10.85Q151.61 11.73 151.32 12.52L151.32 12.52L151.32 12.52Q151.03 13.31 150.52 13.96L150.52 13.96L150.52 13.96Q150.01 14.60 149.30 15.04L149.30 15.04L149.30 15.04Q148.60 15.48 147.76 15.67ZM148.47 11.26L148.47 11.26L148.47 11.26Q148.23 11.58 148.02 11.96L148.02 11.96L148.02 11.96Q147.81 12.33 147.66 12.72L147.66 12.72L147.66 12.72Q147.50 13.10 147.42 13.46L147.42 13.46L147.42 13.46Q147.34 13.82 147.34 14.10L147.34 14.10L147.34 14.10Q147.34 14.43 147.45 14.74L147.45 14.74L147.45 14.74Q147.56 15.05 147.70 15.09L147.70 15.09L147.70 15.09Q148.33 14.95 148.85 14.57L148.85 14.57L148.85 14.57Q149.38 14.18 149.76 13.61L149.76 13.61L149.76 13.61Q150.15 13.03 150.37 12.31L150.37 12.31L150.37 12.31Q150.58 11.58 150.58 10.75L150.58 10.75L150.58 10.75Q150.58 10.39 150.54 10.18L150.54 10.18L150.54 10.18Q150.50 9.97 150.40 9.81L150.40 9.81L150.40 9.81Q149.79 10.00 149.30 10.40L149.30 10.40L149.30 10.40Q148.82 10.81 148.47 11.26ZM171.23 9.81L170.44 9.81L170.44 9.81Q170.37 9.73 170.31 9.46L170.31 9.46L170.31 9.46Q170.25 9.18 170.25 8.99L170.25 8.99L170.25 8.99Q170.62 9.02 170.95 9.04L170.95 9.04L170.95 9.04Q171.29 9.06 171.57 9.07L171.57 9.07L171.57 9.07Q171.78 8.65 172.02 8.24L172.02 8.24L172.02 8.24Q172.27 7.83 172.50 7.48L172.50 7.48L172.50 7.48Q172.73 7.14 172.93 6.90L172.93 6.90L172.93 6.90Q173.14 6.66 173.25 6.59L173.25 6.59L173.25 6.59Q173.39 6.59 173.61 6.64L173.61 6.64L173.61 6.64Q173.82 6.69 174.05 6.77L174.05 6.77L174.05 6.77Q174.27 6.85 174.45 6.93L174.45 6.93L174.45 6.93Q174.64 7.01 174.71 7.10L174.71 7.10L174.71 7.10Q174.29 7.63 173.98 8.09L173.98 8.09L173.98 8.09Q173.68 8.54 173.33 9.13L173.33 9.13L173.33 9.13Q173.61 9.13 173.90 9.11L173.90 9.11L173.90 9.11Q174.19 9.10 174.48 9.07L174.48 9.07L174.48 9.07Q174.55 9.14 174.59 9.25L174.59 9.25L174.59 9.25Q174.64 9.35 174.64 9.46L174.64 9.46L174.64 9.46Q173.95 9.72 172.97 9.74L172.97 9.74L172.97 9.74Q172.62 10.42 172.35 11.08L172.35 11.08L172.35 11.08Q172.07 11.75 171.88 12.36L171.88 12.36L171.88 12.36Q171.70 12.98 171.59 13.52L171.59 13.52L171.59 13.52Q171.49 14.07 171.49 14.50L171.49 14.50L171.49 14.50Q171.49 15.12 171.95 15.19L171.95 15.19L171.95 15.19Q172.37 15.13 172.75 14.98L172.75 14.98L172.75 14.98Q173.12 14.83 173.42 14.59L173.42 14.59L173.42 14.59Q173.50 14.71 173.52 14.80L173.52 14.80L173.52 14.80Q173.43 14.92 173.23 15.09L173.23 15.09L173.23 15.09Q173.03 15.26 172.79 15.42L172.79 15.42L172.79 15.42Q172.55 15.58 172.33 15.69L172.33 15.69L172.33 15.69Q172.10 15.81 171.99 15.82L171.99 15.82L171.99 15.82Q171.64 15.81 171.29 15.67L171.29 15.67L171.29 15.67Q170.94 15.53 170.65 15.32L170.65 15.32L170.65 15.32Q170.37 15.11 170.18 14.85L170.18 14.85L170.18 14.85Q170.00 14.59 170.00 14.34L170.00 14.34L170.00 14.34Q170.00 14 170.09 13.49L170.09 13.49L170.09 13.49Q170.18 12.98 170.35 12.38L170.35 12.38L170.35 12.38Q170.52 11.77 170.74 11.12L170.74 11.12L170.74 11.12Q170.97 10.46 171.23 9.81L171.23 9.81ZM181.52 14.94L181.52 14.94L181.52 14.94Q181.52 14.45 181.62 13.78L181.62 13.78L181.62 13.78Q181.72 13.12 181.91 12.36L181.91 12.36L181.91 12.36Q182.10 11.61 182.36 10.78L182.36 10.78L182.36 10.78Q182.62 9.95 182.94 9.13L182.94 9.13L182.94 9.13Q183.22 8.39 183.59 7.63L183.59 7.63L183.59 7.63Q183.96 6.87 184.39 6.15L184.39 6.15L184.39 6.15Q184.83 5.42 185.30 4.76L185.30 4.76L185.30 4.76Q185.77 4.10 186.24 3.56L186.24 3.56L186.24 3.56Q186.47 3.56 186.72 3.61L186.72 3.61L186.72 3.61Q186.98 3.67 187.23 3.76L187.23 3.76L187.23 3.76Q187.47 3.85 187.68 3.98L187.68 3.98L187.68 3.98Q187.88 4.10 188.01 4.23L188.01 4.23L188.01 4.23Q186.96 5.31 186.12 6.40L186.12 6.40L186.12 6.40Q185.28 7.50 184.79 8.47L184.79 8.47L184.79 8.47Q184.52 9.00 184.30 9.46L184.30 9.46L184.30 9.46Q184.09 9.93 183.90 10.38L183.90 10.38L183.90 10.38Q183.72 10.84 183.57 11.29L183.57 11.29L183.57 11.29Q183.43 11.75 183.30 12.25L183.30 12.25L183.30 12.25Q185.99 8.82 187.29 8.82L187.29 8.82L187.29 8.82Q187.66 8.82 188.08 9.06L188.08 9.06L188.08 9.06Q188.50 9.30 188.82 9.70L188.82 9.70L188.82 9.70Q188.38 10.18 187.92 10.85L187.92 10.85L187.92 10.85Q187.46 11.52 187.07 12.20L187.07 12.20L187.07 12.20Q186.69 12.88 186.44 13.46L186.44 13.46L186.44 13.46Q186.20 14.04 186.20 14.32L186.20 14.32L186.20 14.32Q186.20 14.46 186.24 14.51L186.24 14.51L186.24 14.51Q186.28 14.56 186.42 14.56L186.42 14.56L186.42 14.56Q186.63 14.56 186.76 14.50L186.76 14.50L186.76 14.50Q186.89 14.45 186.91 14.45L186.91 14.45L186.91 14.45Q186.98 14.56 187.00 14.60L187.00 14.60L187.00 14.60Q187.01 14.64 187.01 14.67L187.01 14.67L187.01 14.67Q187.01 14.73 186.84 14.83L186.84 14.83L186.84 14.83Q186.68 14.94 186.44 15.04L186.44 15.04L186.44 15.04Q186.21 15.15 185.99 15.23L185.99 15.23L185.99 15.23Q185.77 15.32 185.65 15.32L185.65 15.32L185.65 15.32Q185.51 15.32 185.37 15.24L185.37 15.24L185.37 15.24Q185.23 15.16 185.13 15.04L185.13 15.04L185.13 15.04Q185.02 14.91 184.96 14.76L184.96 14.76L184.96 14.76Q184.90 14.60 184.90 14.43L184.90 14.43L184.90 14.43Q184.90 14.22 185.02 13.81L185.02 13.81L185.02 13.81Q185.14 13.40 185.35 12.85L185.35 12.85L185.35 12.85Q185.56 12.29 185.85 11.63L185.85 11.63L185.85 11.63Q186.14 10.98 186.48 10.29L186.48 10.29L186.48 10.29Q186.48 10.23 186.42 10.23L186.42 10.23L186.42 10.23Q186.38 10.23 186.21 10.35L186.21 10.35L186.21 10.35Q186.03 10.46 185.88 10.57L185.88 10.57L185.88 10.57Q185.37 10.95 184.86 11.50L184.86 11.50L184.86 11.50Q184.35 12.05 183.87 12.71L183.87 12.71L183.87 12.71Q183.39 13.37 182.96 14.11L182.96 14.11L182.96 14.11Q182.53 14.84 182.22 15.58L182.22 15.58L182.22 15.58Q182.18 15.68 182.10 15.76L182.10 15.76L182.10 15.76Q182.01 15.85 181.96 15.85L181.96 15.85L181.96 15.85Q181.92 15.85 181.84 15.75L181.84 15.75L181.84 15.75Q181.76 15.65 181.70 15.51L181.70 15.51L181.70 15.51Q181.64 15.36 181.58 15.20L181.58 15.20L181.58 15.20Q181.52 15.05 181.52 14.94ZM200.79 9.38L200.79 9.38L200.79 9.38Q200.73 10.25 200.48 10.87L200.48 10.87L200.48 10.87Q200.23 11.49 199.76 11.96L199.76 11.96L199.76 11.96Q199.29 12.43 198.62 12.81L198.62 12.81L198.62 12.81Q197.95 13.19 197.05 13.54L197.05 13.54L197.05 13.54Q197.05 13.62 197.04 13.71L197.04 13.71L197.04 13.71Q197.04 13.80 197.04 13.90L197.04 13.90L197.04 13.90Q197.04 14.08 197.06 14.28L197.06 14.28L197.06 14.28Q197.09 14.48 197.16 14.64L197.16 14.64L197.16 14.64Q197.23 14.81 197.36 14.92L197.36 14.92L197.36 14.92Q197.48 15.02 197.68 15.02L197.68 15.02L197.68 15.02Q198.06 15.02 198.42 14.85L198.42 14.85L198.42 14.85Q198.79 14.69 199.11 14.44L199.11 14.44L199.11 14.44Q199.44 14.20 199.73 13.91L199.73 13.91L199.73 13.91Q200.02 13.62 200.24 13.38L200.24 13.38L200.24 13.38Q200.38 13.51 200.48 13.62L200.48 13.62L200.48 13.62Q199.85 14.46 199.10 15.02L199.10 15.02L199.10 15.02Q198.35 15.57 197.68 15.72L197.68 15.72L197.68 15.72Q196.71 15.61 196.17 15.02L196.17 15.02L196.17 15.02Q195.64 14.42 195.64 13.58L195.64 13.58L195.64 13.58Q195.64 13.01 195.80 12.41L195.80 12.41L195.80 12.41Q195.96 11.82 196.24 11.26L196.24 11.26L196.24 11.26Q196.53 10.71 196.92 10.22L196.92 10.22L196.92 10.22Q197.30 9.73 197.74 9.37L197.74 9.37L197.74 9.37Q198.18 9.00 198.65 8.79L198.65 8.79L198.65 8.79Q199.12 8.58 199.58 8.58L199.58 8.58L199.58 8.58Q200.23 8.67 200.79 9.38ZM199.82 9.84L199.82 9.84L199.82 9.84Q199.44 9.90 199.04 10.15L199.04 10.15L199.04 10.15Q198.63 10.40 198.27 10.82L198.27 10.82L198.27 10.82Q197.92 11.24 197.62 11.80L197.62 11.80L197.62 11.80Q197.33 12.36 197.16 13.01L197.16 13.01L197.16 13.01Q198.28 12.45 199.02 11.63L199.02 11.63L199.02 11.63Q199.77 10.81 199.82 9.84ZM219.53 19.22L219.53 19.22L219.53 19.22Q219.18 19.08 219.11 18.69L219.11 18.69L219.11 18.69Q219.06 18.31 218.64 18.07L218.64 18.07L218.64 18.07Q218.75 17.36 218.89 16.63L218.89 16.63L218.89 16.63Q219.03 15.90 219.25 14.97L219.25 14.97L219.25 14.97Q219.46 14.04 219.79 12.80L219.79 12.80L219.79 12.80Q220.12 11.56 220.63 9.80L220.63 9.80L220.63 9.80Q220.16 9.80 219.90 9.81L219.90 9.81L219.90 9.81Q219.63 9.83 219.38 9.87L219.38 9.87L219.38 9.87Q219.32 9.81 219.29 9.72L219.29 9.72L219.29 9.72Q219.25 9.62 219.25 9.53L219.25 9.53L219.25 9.53Q219.39 9.48 219.83 9.39L219.83 9.39L219.83 9.39Q220.26 9.30 220.78 9.23L220.78 9.23L220.78 9.23Q221.12 8.16 221.55 7.32L221.55 7.32L221.55 7.32Q221.98 6.47 222.49 5.87L222.49 5.87L222.49 5.87Q222.99 5.26 223.55 4.94L223.55 4.94L223.55 4.94Q224.11 4.62 224.69 4.62L224.69 4.62L224.69 4.62Q224.85 4.62 225.01 4.64L225.01 4.64L225.01 4.64Q225.16 4.66 225.25 4.66L225.25 4.66L225.25 4.66Q225.37 4.56 225.58 4.49L225.58 4.49L225.58 4.49Q225.79 4.41 225.95 4.41L225.95 4.41L225.95 4.41Q226.11 4.41 226.38 4.59L226.38 4.59L226.38 4.59Q226.27 4.79 226.14 5.12L226.14 5.12L226.14 5.12Q226.02 5.46 225.93 5.78L225.93 5.78L225.93 5.78Q225.58 6.82 225.19 7.13L225.19 7.13L225.19 7.13Q225.04 7.13 225.02 6.72L225.02 6.72L225.02 6.72Q225.01 6.43 224.94 6.15L224.94 6.15L224.94 6.15Q224.88 6.02 224.86 5.92L224.86 5.92L224.86 5.92Q224.84 5.82 224.84 5.67L224.84 5.67L224.84 5.67Q224.84 5.59 224.85 5.47L224.85 5.47L224.85 5.47Q224.87 5.35 224.91 5.07L224.91 5.07L224.91 5.07Q224.67 5.07 224.38 5.36L224.38 5.36L224.38 5.36Q224.10 5.66 223.78 6.20L223.78 6.20L223.78 6.20Q223.47 6.73 223.15 7.48L223.15 7.48L223.15 7.48Q222.82 8.22 222.53 9.11L222.53 9.11L223.71 9.07L223.71 9.07Q223.78 9.14 223.82 9.39L223.82 9.39L223.82 9.39Q223.87 9.63 223.89 9.90L223.89 9.90L222.35 9.81L222.35 9.81Q221.82 11.40 221.35 12.84L221.35 12.84L221.35 12.84Q220.89 14.28 220.53 15.50L220.53 15.50L220.53 15.50Q220.16 16.72 219.90 17.68L219.90 17.68L219.90 17.68Q219.65 18.63 219.53 19.22ZM234.36 14.87L234.36 14.87L234.36 14.87Q234.09 14.64 234.00 14.31L234.00 14.31L234.00 14.31Q233.91 13.97 233.91 13.73L233.91 13.73L233.91 13.73Q233.91 13.44 233.98 13.23L233.98 13.23L233.98 13.23Q233.93 13.23 233.73 13.45L233.73 13.45L233.73 13.45Q233.53 13.68 233.30 13.99L233.30 13.99L233.30 13.99Q233.07 14.29 232.85 14.59L232.85 14.59L232.85 14.59Q232.62 14.88 232.51 15.02L232.51 15.02L232.51 15.02Q232.33 15.22 232.17 15.33L232.17 15.33L232.17 15.33Q232.01 15.44 231.91 15.46L231.91 15.46L231.91 15.46Q231.69 15.44 231.44 15.37L231.44 15.37L231.44 15.37Q231.20 15.29 230.98 15.15L230.98 15.15L230.98 15.15Q230.76 15.01 230.60 14.81L230.60 14.81L230.60 14.81Q230.44 14.62 230.38 14.36L230.38 14.36L230.38 14.36Q230.38 13.97 230.41 13.72L230.41 13.72L230.41 13.72Q230.43 13.47 230.50 13.17L230.50 13.17L230.50 13.17Q230.62 12.64 230.87 11.97L230.87 11.97L230.87 11.97Q231.11 11.30 231.43 10.65L231.43 10.65L231.43 10.65Q231.76 10.00 232.16 9.43L232.16 9.43L232.16 9.43Q232.55 8.86 233.00 8.54L233.00 8.54L233.00 8.54Q233.13 8.54 233.30 8.56L233.30 8.56L233.30 8.56Q233.46 8.58 233.64 8.64L233.64 8.64L233.64 8.64Q233.81 8.69 233.97 8.77L233.97 8.77L233.97 8.77Q234.14 8.85 234.25 8.97L234.25 8.97L234.25 8.97Q234.12 9.11 233.61 9.91L233.61 9.91L233.61 9.91Q233.10 10.71 232.47 12.21L232.47 12.21L232.47 12.21Q232.40 12.36 232.30 12.66L232.30 12.66L232.30 12.66Q232.20 12.95 232.11 13.27L232.11 13.27L232.11 13.27Q232.01 13.59 231.94 13.90L231.94 13.90L231.94 13.90Q231.88 14.21 231.88 14.39L231.88 14.39L231.88 14.39Q231.88 14.50 231.92 14.56L231.92 14.56L231.92 14.56Q231.95 14.62 231.98 14.64L231.98 14.64L231.98 14.64Q232.19 14.56 232.51 14.18L232.51 14.18L232.51 14.18Q232.83 13.80 233.41 13.02L233.41 13.02L233.41 13.02Q233.55 12.82 233.74 12.57L233.74 12.57L233.74 12.57Q233.93 12.32 234.12 12.03L234.12 12.03L234.12 12.03Q234.32 11.75 234.49 11.44L234.49 11.44L234.49 11.44Q234.67 11.13 234.78 10.82L234.78 10.82L234.78 10.82Q234.84 10.65 234.93 10.42L234.93 10.42L234.93 10.42Q235.02 10.19 235.15 9.94L235.15 9.94L235.15 9.94Q235.28 9.69 235.46 9.43L235.46 9.43L235.46 9.43Q235.63 9.17 235.87 8.95L235.87 8.95L235.87 8.95Q236.05 8.95 236.26 8.99L236.26 8.99L236.26 8.99Q236.47 9.03 236.66 9.09L236.66 9.09L236.66 9.09Q236.85 9.16 236.99 9.23L236.99 9.23L236.99 9.23Q237.13 9.31 237.20 9.39L237.20 9.39L237.20 9.39Q236.95 10.01 236.64 10.61L236.64 10.61L236.64 10.61Q236.33 11.21 236.07 11.79L236.07 11.79L236.07 11.79Q235.80 12.38 235.62 12.95L235.62 12.95L235.62 12.95Q235.44 13.52 235.44 14.07L235.44 14.07L235.44 14.07Q235.44 14.36 235.49 14.58L235.49 14.58L235.49 14.58Q235.54 14.80 235.59 14.95L235.59 14.95L235.59 14.95Q235.65 15.09 235.70 15.19L235.70 15.19L235.70 15.19Q235.75 15.29 235.75 15.36L235.75 15.36L235.75 15.36Q235.75 15.37 235.72 15.40L235.72 15.40L235.72 15.40Q235.70 15.41 235.69 15.41L235.69 15.41L235.69 15.41Q235.59 15.41 235.44 15.37L235.44 15.37L235.44 15.37Q235.28 15.33 235.09 15.25L235.09 15.25L235.09 15.25Q234.91 15.18 234.72 15.08L234.72 15.08L234.72 15.08Q234.53 14.98 234.36 14.87ZM244.45 14.28L244.45 14.28L244.45 14.28Q244.45 13.66 244.75 12.55L244.75 12.55L244.75 12.55Q245.04 11.44 245.57 9.95L245.57 9.95L245.57 9.95Q246.44 7.59 247.20 6.01L247.20 6.01L247.20 6.01Q247.97 4.44 248.70 3.56L248.70 3.56L248.70 3.56Q248.86 3.58 249.11 3.70L249.11 3.70L249.11 3.70Q249.35 3.81 249.59 3.94L249.59 3.94L249.59 3.94Q249.83 4.07 250.02 4.21L250.02 4.21L250.02 4.21Q250.21 4.35 250.26 4.44L250.26 4.44L250.26 4.44Q249.17 5.73 248.35 7.21L248.35 7.21L248.35 7.21Q247.52 8.69 246.83 10.61L246.83 10.61L246.83 10.61Q246.25 12.26 245.94 13.59L245.94 13.59L245.94 13.59Q245.63 14.91 245.63 15.79L245.63 15.79L245.63 15.79Q245.63 16.03 245.63 16.09L245.63 16.09L245.63 16.09Q245.63 16.14 245.64 16.20L245.64 16.20L245.64 16.20Q245.45 16.17 245.31 16.10L245.31 16.10L245.31 16.10Q245.17 16.03 245.13 15.93L245.13 15.93L245.13 15.93Q245.10 15.86 244.97 15.73L244.97 15.73L244.97 15.73Q244.85 15.60 244.75 15.53L244.75 15.53L244.75 15.53Q244.62 15.44 244.54 15.09L244.54 15.09L244.54 15.09Q244.45 14.73 244.45 14.28ZM254.76 14.28L254.76 14.28L254.76 14.28Q254.76 13.66 255.05 12.55L255.05 12.55L255.05 12.55Q255.35 11.44 255.88 9.95L255.88 9.95L255.88 9.95Q256.75 7.59 257.51 6.01L257.51 6.01L257.51 6.01Q258.27 4.44 259 3.56L259 3.56L259 3.56Q259.17 3.58 259.41 3.70L259.41 3.70L259.41 3.70Q259.66 3.81 259.90 3.94L259.90 3.94L259.90 3.94Q260.13 4.07 260.32 4.21L260.32 4.21L260.32 4.21Q260.51 4.35 260.57 4.44L260.57 4.44L260.57 4.44Q259.48 5.73 258.65 7.21L258.65 7.21L258.65 7.21Q257.82 8.69 257.14 10.61L257.14 10.61L257.14 10.61Q256.55 12.26 256.24 13.59L256.24 13.59L256.24 13.59Q255.93 14.91 255.93 15.79L255.93 15.79L255.93 15.79Q255.93 16.03 255.93 16.09L255.93 16.09L255.93 16.09Q255.93 16.14 255.95 16.20L255.95 16.20L255.95 16.20Q255.75 16.17 255.61 16.10L255.61 16.10L255.61 16.10Q255.47 16.03 255.43 15.93L255.43 15.93L255.43 15.93Q255.40 15.86 255.28 15.73L255.28 15.73L255.28 15.73Q255.15 15.60 255.05 15.53L255.05 15.53L255.05 15.53Q254.93 15.44 254.84 15.09L254.84 15.09L254.84 15.09Q254.76 14.73 254.76 14.28ZM270.03 9.38L270.03 9.38L270.03 9.38Q269.98 10.25 269.72 10.87L269.72 10.87L269.72 10.87Q269.47 11.49 269.00 11.96L269.00 11.96L269.00 11.96Q268.53 12.43 267.86 12.81L267.86 12.81L267.86 12.81Q267.19 13.19 266.29 13.54L266.29 13.54L266.29 13.54Q266.29 13.62 266.29 13.71L266.29 13.71L266.29 13.71Q266.28 13.80 266.28 13.90L266.28 13.90L266.28 13.90Q266.28 14.08 266.31 14.28L266.31 14.28L266.31 14.28Q266.34 14.48 266.41 14.64L266.41 14.64L266.41 14.64Q266.48 14.81 266.60 14.92L266.60 14.92L266.60 14.92Q266.73 15.02 266.92 15.02L266.92 15.02L266.92 15.02Q267.30 15.02 267.67 14.85L267.67 14.85L267.67 14.85Q268.03 14.69 268.36 14.44L268.36 14.44L268.36 14.44Q268.69 14.20 268.97 13.91L268.97 13.91L268.97 13.91Q269.26 13.62 269.49 13.38L269.49 13.38L269.49 13.38Q269.63 13.51 269.72 13.62L269.72 13.62L269.72 13.62Q269.09 14.46 268.34 15.02L268.34 15.02L268.34 15.02Q267.60 15.57 266.92 15.72L266.92 15.72L266.92 15.72Q265.96 15.61 265.42 15.02L265.42 15.02L265.42 15.02Q264.88 14.42 264.88 13.58L264.88 13.58L264.88 13.58Q264.88 13.01 265.04 12.41L265.04 12.41L265.04 12.41Q265.20 11.82 265.49 11.26L265.49 11.26L265.49 11.26Q265.78 10.71 266.16 10.22L266.16 10.22L266.16 10.22Q266.55 9.73 266.99 9.37L266.99 9.37L266.99 9.37Q267.43 9.00 267.90 8.79L267.90 8.79L267.90 8.79Q268.37 8.58 268.83 8.58L268.83 8.58L268.83 8.58Q269.47 8.67 270.03 9.38ZM269.07 9.84L269.07 9.84L269.07 9.84Q268.69 9.90 268.28 10.15L268.28 10.15L268.28 10.15Q267.88 10.40 267.52 10.82L267.52 10.82L267.52 10.82Q267.16 11.24 266.87 11.80L266.87 11.80L266.87 11.80Q266.57 12.36 266.41 13.01L266.41 13.01L266.41 13.01Q267.53 12.45 268.27 11.63L268.27 11.63L268.27 11.63Q269.01 10.81 269.07 9.84ZM282.51 9.60L282.51 9.60L282.51 9.60Q282.49 9.87 282.41 10.16L282.41 10.16L282.41 10.16Q282.34 10.44 282.23 10.68L282.23 10.68L282.23 10.68Q282.11 10.91 281.99 11.06L281.99 11.06L281.99 11.06Q281.86 11.21 281.75 11.21L281.75 11.21L281.75 11.21Q281.60 11.20 281.57 11.00L281.57 11.00L281.57 11.00Q281.57 10.96 281.60 10.87L281.60 10.87L281.60 10.87Q281.64 10.78 281.68 10.67L281.68 10.67L281.68 10.67Q281.72 10.56 281.76 10.44L281.76 10.44L281.76 10.44Q281.79 10.33 281.79 10.25L281.79 10.25L281.79 10.25Q281.79 10.05 281.70 9.92L281.70 9.92L281.70 9.92Q281.61 9.79 281.46 9.79L281.46 9.79L281.46 9.79Q280.90 9.79 280.60 10.49L280.60 10.49L280.60 10.49Q280.31 11.19 280.31 12.54L280.31 12.54L280.31 12.54Q280.31 12.68 280.32 12.71L280.32 12.71L280.32 12.71Q280.62 12.70 280.85 12.69L280.85 12.69L280.85 12.69Q281.08 12.68 281.30 12.68L281.30 12.68L281.30 12.68Q281.32 12.71 281.32 12.80L281.32 12.80L281.32 12.80Q281.32 12.92 281.26 12.98L281.26 12.98L281.26 12.98Q280.94 13.05 280.75 13.10L280.75 13.10L280.75 13.10Q280.56 13.15 280.46 13.19L280.46 13.19L280.46 13.19Q280.36 13.23 280.34 13.28L280.34 13.28L280.34 13.28Q280.32 13.33 280.32 13.41L280.32 13.41L280.32 13.41Q280.32 13.52 280.33 13.64L280.33 13.64L280.33 13.64Q280.34 13.75 280.34 13.92L280.34 13.92L280.34 13.92Q280.34 15.09 279.70 15.81L279.70 15.81L279.70 15.81Q279.06 16.52 277.93 16.63L277.93 16.63L277.93 16.63Q277.73 16.62 277.52 16.52L277.52 16.52L277.52 16.52Q277.31 16.42 277.12 16.27L277.12 16.27L277.12 16.27Q276.93 16.11 276.79 15.93L276.79 15.93L276.79 15.93Q276.65 15.74 276.60 15.54L276.60 15.54L276.60 15.54Q276.60 15.01 276.82 14.53L276.82 14.53L276.82 14.53Q277.05 14.04 277.43 13.67L277.43 13.67L277.43 13.67Q277.82 13.30 278.34 13.07L278.34 13.07L278.34 13.07Q278.87 12.84 279.48 12.80L279.48 12.80L279.48 12.80Q279.48 12.45 279.41 12.11L279.41 12.11L279.41 12.11Q279.34 11.77 279.26 11.46L279.26 11.46L279.26 11.46Q279.19 11.14 279.12 10.84L279.12 10.84L279.12 10.84Q279.05 10.54 279.05 10.25L279.05 10.25L279.05 10.25Q279.05 9.87 279.20 9.50L279.20 9.50L279.20 9.50Q279.36 9.13 279.61 8.81L279.61 8.81L279.61 8.81Q279.86 8.50 280.20 8.27L280.20 8.27L280.20 8.27Q280.53 8.05 280.90 7.97L280.90 7.97L280.90 7.97Q281.05 8.01 281.31 8.21L281.31 8.21L281.31 8.21Q281.57 8.41 281.82 8.67L281.82 8.67L281.82 8.67Q282.07 8.92 282.27 9.18L282.27 9.18L282.27 9.18Q282.46 9.44 282.51 9.60ZM277.89 15.99L277.89 15.99L277.89 15.99Q278.22 15.85 278.52 15.58L278.52 15.58L278.52 15.58Q278.82 15.32 279.05 14.98L279.05 14.98L279.05 14.98Q279.27 14.64 279.40 14.27L279.40 14.27L279.40 14.27Q279.54 13.89 279.54 13.52L279.54 13.52L279.54 13.52Q279.26 13.57 278.92 13.78L278.92 13.78L278.92 13.78Q278.59 14 278.29 14.30L278.29 14.30L278.29 14.30Q278.00 14.60 277.80 14.92L277.80 14.92L277.80 14.92Q277.61 15.25 277.61 15.48L277.61 15.48L277.61 15.48Q277.61 15.79 277.89 15.99ZM291.14 9.81L290.35 9.81L290.35 9.81Q290.28 9.73 290.22 9.46L290.22 9.46L290.22 9.46Q290.16 9.18 290.16 8.99L290.16 8.99L290.16 8.99Q290.53 9.02 290.86 9.04L290.86 9.04L290.86 9.04Q291.20 9.06 291.48 9.07L291.48 9.07L291.48 9.07Q291.69 8.65 291.94 8.24L291.94 8.24L291.94 8.24Q292.18 7.83 292.41 7.48L292.41 7.48L292.41 7.48Q292.64 7.14 292.84 6.90L292.84 6.90L292.84 6.90Q293.05 6.66 293.16 6.59L293.16 6.59L293.16 6.59Q293.30 6.59 293.52 6.64L293.52 6.64L293.52 6.64Q293.73 6.69 293.96 6.77L293.96 6.77L293.96 6.77Q294.18 6.85 294.36 6.93L294.36 6.93L294.36 6.93Q294.55 7.01 294.62 7.10L294.62 7.10L294.62 7.10Q294.20 7.63 293.89 8.09L293.89 8.09L293.89 8.09Q293.59 8.54 293.24 9.13L293.24 9.13L293.24 9.13Q293.52 9.13 293.81 9.11L293.81 9.11L293.81 9.11Q294.10 9.10 294.39 9.07L294.39 9.07L294.39 9.07Q294.46 9.14 294.50 9.25L294.50 9.25L294.50 9.25Q294.55 9.35 294.55 9.46L294.55 9.46L294.55 9.46Q293.86 9.72 292.88 9.74L292.88 9.74L292.88 9.74Q292.53 10.42 292.26 11.08L292.26 11.08L292.26 11.08Q291.98 11.75 291.79 12.36L291.79 12.36L291.79 12.36Q291.61 12.98 291.50 13.52L291.50 13.52L291.50 13.52Q291.40 14.07 291.40 14.50L291.40 14.50L291.40 14.50Q291.40 15.12 291.86 15.19L291.86 15.19L291.86 15.19Q292.28 15.13 292.66 14.98L292.66 14.98L292.66 14.98Q293.03 14.83 293.33 14.59L293.33 14.59L293.33 14.59Q293.41 14.71 293.43 14.80L293.43 14.80L293.43 14.80Q293.34 14.92 293.14 15.09L293.14 15.09L293.14 15.09Q292.94 15.26 292.70 15.42L292.70 15.42L292.70 15.42Q292.46 15.58 292.24 15.69L292.24 15.69L292.24 15.69Q292.01 15.81 291.90 15.82L291.90 15.82L291.90 15.82Q291.55 15.81 291.20 15.67L291.20 15.67L291.20 15.67Q290.85 15.53 290.56 15.32L290.56 15.32L290.56 15.32Q290.28 15.11 290.09 14.85L290.09 14.85L290.09 14.85Q289.91 14.59 289.91 14.34L289.91 14.34L289.91 14.34Q289.91 14 290.00 13.49L290.00 13.49L290.00 13.49Q290.09 12.98 290.26 12.38L290.26 12.38L290.26 12.38Q290.43 11.77 290.65 11.12L290.65 11.12L290.65 11.12Q290.88 10.46 291.14 9.81L291.14 9.81Z"></path></g></svg>