<svg data-v-423bf9ae="" xmlns="http://www.w3.org/2000/svg" viewBox="0 0 65.6146069106314 60" class="icon"><!----><!----><!----><!----><g data-v-423bf9ae="" id="4b1f80be-ced0-42dc-b579-7150a780e756" transform="matrix(0.91161856018814,0,0,0.91161856018814,-27.96745524370482,-30.77441882624381)" stroke="none" fill="black"><g><path d="M34.468 54.923h64.398c-1.12-10.316-15.135-18.498-32.2-18.498-17.065 0-31.08 8.182-32.198 18.498zm65.802 2.667H33.063a1.334 1.334 0 0 1-1.334-1.333c0-12.406 15.673-22.499 34.937-22.499 19.265 0 34.938 10.093 34.938 22.499 0 .736-.596 1.333-1.334 1.333M34.395 87.942v3.783c0 2.791 3.465 5.183 6.301 5.183h51.94c2.836 0 6.3-2.392 6.3-5.183v-3.783H34.396zm58.241 11.633h-51.94c-4.147 0-8.967-3.43-8.967-7.85v-5.116a1.334 1.334 0 0 1 1.332-1.334h67.21c.737 0 1.333.597 1.333 1.334v5.116c0 4.42-4.82 7.85-8.968 7.85"></path><path d="M46.555 46.522a1.555 1.555 0 1 1-3.11 0 1.555 1.555 0 0 1 3.11 0M55.944 48.94a1.555 1.555 0 1 1-3.11-.001 1.555 1.555 0 0 1 3.11 0M58.333 41.16a1.555 1.555 0 1 1-3.111.001 1.555 1.555 0 0 1 3.11 0M90.236 47.383a1.556 1.556 0 1 1-3.111 0 1.556 1.556 0 0 1 3.111 0M81.597 42.37a1.555 1.555 0 1 1-3.11 0 1.555 1.555 0 0 1 3.11 0M76.542 48.078a1.556 1.556 0 1 1-3.112 0 1.556 1.556 0 0 1 3.112 0M71.458 40.48a1.556 1.556 0 1 1-3.112 0 1.556 1.556 0 0 1 3.112 0M65.944 44.967a1.556 1.556 0 1 1-3.11 0 1.556 1.556 0 0 1 3.11 0M97.01 71.39h-6.486c-1.39 3.602-3.01 7.14-4.288 7.05-2.257-.16-6.57-6.439-17.792-7.05H36.322c-3.056 0-5.556 2.5-5.556 5.555 0 3.056 2.5 5.556 5.556 5.556H97.01c3.056 0 5.556-2.5 5.556-5.556 0-3.055-2.5-5.555-5.556-5.555M52.022 67.748c-2.737 0-5.303-1.158-7.954-2.355-.482-.216-.973-.439-1.477-.66-5.751-2.519-7.964-.904-9.499 1.215a1.333 1.333 0 1 1-2.16-1.563c2.877-3.974 6.921-4.639 12.73-2.094.513.225 1.013.45 1.502.672 4.55 2.053 7.558 3.409 11.756.265 5.83-4.364 9.84-3.461 18.26-.175 5.86 2.285 8.53.775 11.624-.973.883-.499 1.798-1.014 2.794-1.438 4.86-2.07 11.764 3.05 12.533 3.64.585.447.697 1.283.25 1.867a1.33 1.33 0 0 1-1.87.25c-1.755-1.34-6.958-4.547-9.87-3.303-.86.365-1.669.822-2.525 1.306-3.22 1.819-6.87 3.877-13.904 1.135-7.911-3.086-10.874-3.78-15.693-.174-2.329 1.743-4.46 2.384-6.497 2.385"></path></g></g><!----></svg>